<!DOCTYPE svg PUBLIC "-//W3C//DTD SVG 20010904//EN" "http://www.w3.org/TR/2001/REC-SVG-20010904/DTD/svg10.dtd">
<svg version="1.0" xmlns="http://www.w3.org/2000/svg" width="35px" height="63px" viewBox="0 0 350 630" preserveAspectRatio="xMidYMid meet">
<g id="layer101" fill="#41636d" stroke="none">
 <path d="M130 618 c-52 -15 -90 -46 -111 -92 -16 -35 -19 -67 -19 -215 0 -154 2 -179 20 -215 59 -121 237 -127 306 -11 25 43 25 45 22 238 l-3 194 -28 36 c-45 60 -118 85 -187 65z m106 -44 c20 -10 45 -34 59 -59 24 -40 25 -50 25 -201 0 -136 -3 -164 -19 -194 -19 -37 -69 -77 -108 -86 -40 -10 -113 35 -140 86 -23 43 -24 53 -21 205 3 150 4 162 27 193 48 68 111 87 177 56z"/>
 <path d="M156 505 c-9 -25 -9 -25 25 -25 24 0 30 4 27 18 -4 23 -44 28 -52 7z"/>
 <path d="M160 435 c0 -8 9 -15 20 -15 11 0 20 7 20 15 0 8 -9 15 -20 15 -11 0 -20 -7 -20 -15z"/>
 <path d="M150 383 c1 -35 52 -43 58 -10 3 13 -3 17 -27 17 -17 0 -31 -3 -31 -7z"/>
 <path d="M164 236 c-3 -7 -4 -40 -2 -72 3 -51 6 -59 23 -59 18 0 20 8 23 73 3 67 1 72 -18 72 -11 0 -23 -6 -26 -14z"/>
 </g>
<g id="layer102" fill="#49b0da" stroke="none">
 <path d="M164 236 c-3 -7 -4 -40 -2 -72 3 -51 6 -59 23 -59 18 0 20 8 23 73 3 67 1 72 -18 72 -11 0 -23 -6 -26 -14z"/>
 </g>

</svg>