<?xml version="1.0" encoding="utf-8"?><!DOCTYPE svg PUBLIC "-//W3C//DTD SVG 1.1//EN" "http://www.w3.org/Graphics/SVG/1.1/DTD/svg11.dtd"><svg version="1.1" xmlns="http://www.w3.org/2000/svg" xmlns:xlink="http://www.w3.org/1999/xlink" width="24" height="24" viewBox="0 0 24 24" data-code="58149" data-tags="phone_iphone"><g fill="#444" transform="scale(0.0234375 0.0234375)"><path d="M682 768v-598h-384v598h384zM490 938c36 0 64-28 64-64s-28-64-64-64-64 28-64 64 28 64 64 64zM662 42c58 0 106 50 106 108v724c0 58-48 108-106 108h-342c-58 0-106-50-106-108v-724c0-58 48-108 106-108h342z" /></g></svg>